HIERARCHY
ROOT Hips
{
    OFFSET 0.000000 0.000000 0.000000
    CHANNELS 6 Xposition Yposition Zposition Zrotation Xrotation Yrotation
    JOINT Spine
    {
        OFFSET -0.000000 8.172037 0.000000
        CHANNELS 3 Zrotation Xrotation Yrotation
        JOINT Spine1
        {
            OFFSET -0.000000 18.392342 0.000000
            CHANNELS 3 Zrotation Xrotation Yrotation
            JOINT Neck
            {
                OFFSET -0.000000 18.316809 1.665164
                CHANNELS 3 Zrotation Xrotation Yrotation
                JOINT Head
                {
                    OFFSET -0.000000 13.952258 -1.993180
                    CHANNELS 3 Zrotation Xrotation Yrotation
                    End Site
                    {
                        OFFSET -0.000000 24.914745 0.000000
                    }
                }
            }
            JOINT LeftShoulder
            {
                OFFSET 4.035833 16.062790 -0.310290
                CHANNELS 3 Zrotation Xrotation Yrotation
                JOINT LeftArm
                {
                    OFFSET 12.395579 0.000000 0.000000
                    CHANNELS 3 Zrotation Xrotation Yrotation
                    JOINT LeftForeArm
                    {
                        OFFSET 26.414022 0.000000 0.000000
                        CHANNELS 3 Zrotation Xrotation Yrotation
                        JOINT LeftHand
                        {
                            OFFSET 28.641636 0.000000 0.000000
                            CHANNELS 3 Zrotation Xrotation Yrotation
                            End Site
                            {
                                OFFSET 14.948848 0.000000 0.000000
                            }
                        }
                    }
                }
            }
            JOINT RightShoulder
            {
                OFFSET -3.919767 16.062790 -0.310290
                CHANNELS 3 Zrotation Xrotation Yrotation
                JOINT RightArm
                {
                    OFFSET -12.395579 0.000000 0.000000
                    CHANNELS 3 Zrotation Xrotation Yrotation
                    JOINT RightForeArm
                    {
                        OFFSET -26.414022 0.000000 0.000000
                        CHANNELS 3 Zrotation Xrotation Yrotation
                        JOINT RightHand
                        {
                            OFFSET -28.641636 0.000000 0.000000
                            CHANNELS 3 Zrotation Xrotation Yrotation
                            End Site
                            {
                                OFFSET -14.948848 0.000000 0.000000
                            }
                        }
                    }
                }
            }
        }
    }
    JOINT LeftUpLeg
    {
        OFFSET 9.965899 0.000000 0.000000
        CHANNELS 3 Zrotation Xrotation Yrotation
        JOINT LeftLeg
        {
            OFFSET -0.000000 -49.671295 0.000000
            CHANNELS 3 Zrotation Xrotation Yrotation
            JOINT LeftFoot
            {
                OFFSET -0.000000 -36.155865 0.000000
                CHANNELS 3 Zrotation Xrotation Yrotation
                JOINT LeftToeBase
                {
                    OFFSET -0.000000 -6.477834 14.948848
                    CHANNELS 3 Zrotation Xrotation Yrotation
                    End Site
                    {
                        OFFSET -0.000000 0.000000 3.986359
                    }
                }
            }
        }
    }
    JOINT RightUpLeg
    {
        OFFSET -9.965899 0.000000 0.000000
        CHANNELS 3 Zrotation Xrotation Yrotation
        JOINT RightLeg
        {
            OFFSET -0.000000 -49.671295 0.000000
            CHANNELS 3 Zrotation Xrotation Yrotation
            JOINT RightFoot
            {
                OFFSET -0.000000 -36.155865 0.000000
                CHANNELS 3 Zrotation Xrotation Yrotation
                JOINT RightToeBase
                {
                    OFFSET -0.000000 -6.477834 14.948848
                    CHANNELS 3 Zrotation Xrotation Yrotation
                    End Site
                    {
                        OFFSET -0.000000 0.000000 3.986359
                    }
                }
            }
        }
    }
}
MOTION
Frames:    4
Frame Time:    0.010000
-21.706060    100.961876    -35.624874    0.338507    -7.335013    -176.185089    -0.058695    -6.132249    3.346917    0.290224    -4.973372    3.362678    2.196296    18.632185    -2.869371    2.173383    -7.788658    -2.482016    7.687603    11.305598    8.814391    -70.585289    16.831249    -8.093966    -17.530405    9.388010    -73.542007    1.294944    -3.773818    4.957625    -3.473708    6.359575    3.425068    65.281960    8.851718    7.177077    17.624826    1.695268    50.776642    -1.970863    -6.657734    -4.559914    1.249769    -23.465008    3.912821    -5.252934    11.034700    -0.609574    5.464945    10.710339    -7.339336    0.000000    0.000000    0.000000    -0.867064    8.840799    -8.196754    5.484340    27.407600    1.546392    -5.182723    12.139659    18.811995    0.000000    0.000000    0.000000    
-21.754929    100.735771    -37.695065    0.470669    -7.070767    -176.608643    -0.256102    -6.329185    3.380422    0.731848    -4.592319    3.423943    2.035112    18.730574    -2.855675    2.262783    -7.977917    -2.447193    7.524498    11.785003    9.152988    -70.689285    17.521296    -9.232540    -16.353207    8.618297    -75.911232    0.859597    -4.203064    5.341551    -3.568958    6.461743    3.343756    65.258545    9.230793    7.111061    18.281637    2.109131    47.896130    -1.884161    -6.019016    -3.884133    1.179479    -23.006245    3.491974    -5.169444    9.135512    1.293102    4.131398    12.483958    -7.474885    0.000000    0.000000    0.000000    -0.938086    8.682015    -8.240014    4.734334    29.656723    2.849326    -4.352474    12.199564    18.387016    0.000000    0.000000    0.000000    
-21.774122    100.389336    -39.730137    0.701987    -6.712622    -176.984482    -0.363654    -6.242080    3.355330    1.065835    -4.455452    3.416639    1.976585    18.733454    -2.745303    2.358262    -8.025414    -2.312593    7.567914    11.274201    8.692596    -71.162132    17.250336    -8.709729    -15.850225    8.418531    -78.395454    0.768669    -4.573513    5.723574    -3.567158    6.575195    3.358330    65.264328    9.472704    6.956229    19.082685    2.281913    45.366356    -1.901465    -5.712136    -3.611404    1.304687    -22.679718    2.701513    -5.198536    8.111168    2.952692    2.095097    14.721125    -7.164302    0.000000    0.000000    0.000000    -0.600625    8.390966    -8.050708    3.375818    32.103699    3.453208    -3.744752    11.920229    18.722130    0.000000    0.000000    0.000000    
-21.778687    99.896584    -41.785091    0.988271    -6.233637    -177.255890    -0.428613    -6.169299    3.231705    1.299009    -4.217473    3.302641    2.114525    18.898373    -2.656920    2.393318    -8.132854    -2.204448    7.676697    11.551966    8.888774    -71.400581    18.583954    -9.683901    -14.390168    6.798208    -80.831856    0.503562    -5.515516    6.511911    -3.355801    6.835728    3.346094    65.091064    9.884961    6.987761    19.127041    2.664660    42.916035    -1.168935    -4.896771    -3.124160    1.538457    -22.459780    2.349623    -5.174235    8.457777    3.246728    -0.814487    16.130119    -5.969123    0.000000    0.000000    0.000000    -0.555220    8.428827    -6.672858    3.910689    34.209187    4.229142    -3.584949    11.147321    17.059185    0.000000    0.000000    0.000000    
